<svg xmlns="http://www.w3.org/2000/svg" width="20" height="20" viewBox="0 0 20 20" fill="none">
  <path d="M19.4123 3.41249C20.1936 2.63124 20.1936 1.36249 19.4123 0.581238C18.6311 -0.200012 17.3623 -0.200012 16.5811 0.581238L9.9998 7.16874L3.4123 0.587488C2.63105 -0.193762 1.3623 -0.193762 0.581055 0.587488C-0.200195 1.36874 -0.200195 2.63749 0.581055 3.41874L7.16855 9.99999L0.587305 16.5875C-0.193945 17.3687 -0.193945 18.6375 0.587305 19.4187C1.36855 20.2 2.6373 20.2 3.41855 19.4187L9.9998 12.8312L16.5873 19.4125C17.3686 20.1937 18.6373 20.1937 19.4186 19.4125C20.1998 18.6312 20.1998 17.3625 19.4186 16.5812L12.8311 9.99999L19.4123 3.41249Z" fill="black"/>
</svg>